<svg width="24" height="20" viewBox="0 0 24 20" fill="none" xmlns="http://www.w3.org/2000/svg">
<path d="M21.3335 0.666748H2.66683C1.38 0.666748 0.333496 1.71325 0.333496 3.00008V17.0001C0.333496 18.2869 1.38 19.3334 2.66683 19.3334H21.3335C22.6203 19.3334 23.6668 18.2869 23.6668 17.0001V3.00008C23.6668 1.71325 22.6203 0.666748 21.3335 0.666748ZM21.3335 3.00008V3.59625L12.0002 10.8564L2.66683 3.59742V3.00008H21.3335ZM2.66683 17.0001V6.55141L11.2838 13.2539C11.4938 13.4184 11.747 13.5001 12.0002 13.5001C12.2533 13.5001 12.5065 13.4184 12.7165 13.2539L21.3335 6.55141L21.3358 17.0001H2.66683Z" fill="#6366F1"/>
</svg>
